<svg width="176" height="56" viewBox="0 0 176 56" fill="none" xmlns="http://www.w3.org/2000/svg">
<path d="M0 34.5729C0 32.4338 0.46388 30.5257 1.39164 28.8494C2.3194 27.1726 3.61288 25.8668 5.27264 24.9306C6.93222 23.9945 8.81335 23.5264 10.9163 23.5264C13.4932 23.5264 15.6992 24.2053 17.5341 25.563C19.3689 26.9207 20.5955 28.772 21.214 31.1173H15.4004C14.9674 30.212 14.3541 29.5229 13.5602 29.0499C12.7665 28.5768 11.8646 28.3401 10.8544 28.3401C9.22579 28.3401 7.9065 28.9058 6.89612 30.0375C5.88597 31.1687 5.38086 32.6808 5.38086 34.5733C5.38086 36.4658 5.88597 37.9778 6.89612 39.1091C7.9065 40.2408 9.22579 40.8065 10.8544 40.8065C11.8648 40.8065 12.7665 40.5698 13.5602 40.0967C14.3541 39.6237 14.9674 38.9346 15.4004 38.0297H21.214C20.5955 40.3746 19.3687 42.2209 17.5341 43.5684C15.699 44.9158 13.4932 45.5893 10.9163 45.5893C8.81354 45.5893 6.93222 45.1212 5.27264 44.1855C3.61288 43.2493 2.3194 41.9484 1.39164 40.282C0.46388 38.6155 0 36.7124 0 34.5729ZM27.5138 22.6006V45.4345H22.2258V22.6006H27.5138ZM45.3795 36.5477C45.3795 37.0417 45.3485 37.5559 45.2867 38.0907H33.319C33.4014 39.1606 33.7468 39.9782 34.355 40.5438C34.9632 41.1095 35.7106 41.3923 36.5969 41.3923C37.9164 41.3923 38.8336 40.8369 39.3489 39.7259H44.9772C44.6888 40.8575 44.1682 41.8756 43.4156 42.7809C42.6631 43.6861 41.72 44.3959 40.5862 44.9101C39.4521 45.4242 38.1843 45.6815 36.7825 45.6815C35.0919 45.6815 33.5869 45.3213 32.2674 44.6013C30.9479 43.8813 29.9173 42.8525 29.1752 41.5158C28.433 40.1787 28.0617 38.6152 28.0617 36.8256C28.0617 35.0356 28.4278 33.4725 29.1596 32.1354C29.8916 30.7979 30.9172 29.7695 32.2365 29.0495C33.5562 28.3295 35.0712 27.9696 36.7825 27.9696C38.4524 27.9696 39.9368 28.3192 41.2356 29.0186C42.5344 29.718 43.5497 30.7159 44.2816 32.0115C45.0135 33.3078 45.3795 34.8195 45.3795 36.5477ZM39.9674 35.1591C39.9674 34.2539 39.6583 33.5339 39.0399 32.9995C38.4214 32.4643 37.6481 32.1971 36.7205 32.1971C35.834 32.1971 35.0866 32.4544 34.4786 32.9686C33.8704 33.4828 33.4943 34.2131 33.35 35.1591H39.9674ZM53.6894 40.4977L57.4314 28.2166H63.0594L56.9367 45.4345H50.4119L44.2889 28.2166H49.9478L53.6894 40.4977ZM79.3167 36.5477C79.3167 37.0417 79.2861 37.5559 79.2242 38.0907H67.2563C67.3389 39.1606 67.6842 39.9782 68.2923 40.5438C68.9004 41.1095 69.648 41.3923 70.5342 41.3923C71.854 41.3923 72.7712 40.8369 73.2865 39.7259H78.9148C78.626 40.8575 78.1054 41.8756 77.3529 42.7809C76.6007 43.6861 75.6576 44.3959 74.5238 44.9101C73.3897 45.4242 72.1218 45.6815 70.7199 45.6815C69.0296 45.6815 67.5245 45.3213 66.2047 44.6013C64.8853 43.8813 63.8547 42.8525 63.1128 41.5158C62.3702 40.1787 61.9993 38.6152 61.9993 36.8256C61.9993 35.0356 62.3653 33.4725 63.0972 32.1354C63.8291 30.7979 64.8547 29.7695 66.1738 29.0495C67.4936 28.3295 69.0086 27.9696 70.7199 27.9696C72.39 27.9696 73.874 28.3192 75.1732 29.0186C76.472 29.718 77.4869 30.7159 78.2192 32.0115C78.9507 33.3078 79.3167 34.8195 79.3167 36.5477ZM73.905 35.1591C73.905 34.2539 73.5959 33.5339 72.9771 32.9995C72.3587 32.4643 71.5855 32.1971 70.658 32.1971C69.7714 32.1971 69.0242 32.4544 68.4161 32.9686C67.8079 33.4828 67.4317 34.2131 67.2873 35.1591H73.905ZM85.1528 31.086C85.7716 30.14 86.5444 29.3941 87.4723 28.849C88.3998 28.3039 89.4308 28.0314 90.5645 28.0314V33.6166H89.111C87.7916 33.6166 86.8023 33.8994 86.1426 34.465C85.4829 35.0307 85.1528 36.0236 85.1528 37.4427V45.4345H79.8649V28.2166H85.1528V31.0864V31.086Z" fill="#F1F5FB"/>
<path fill-rule="evenodd" clip-rule="evenodd" d="M109.233 23.7732V28.0011H100.388V32.5678H106.876C106.355 33.7719 106.087 35.1399 106.073 36.6717H100.388V45.4351H95.1001V23.7736H109.232L109.233 23.7732Z" fill="#F1F5FB"/>
<path fill-rule="evenodd" clip-rule="evenodd" d="M136.271 16.7639H0V0H150.976L136.271 16.7639ZM9.96327 5.75022C10.5266 5.75022 11.0201 5.85772 11.4439 6.07308C11.8677 6.28805 12.195 6.59717 12.4259 6.99968C12.6568 7.40219 12.7722 7.87216 12.7722 8.40884C12.7722 8.94552 12.6568 9.41129 12.4259 9.80656C12.195 10.2014 11.8677 10.5041 11.4439 10.7141C11.0201 10.9241 10.5266 11.0293 9.96327 11.0293H8.2352V5.75022H9.96327ZM9.96327 10.3227C10.5824 10.3227 11.057 10.1557 11.387 9.82143C11.7168 9.48715 11.8816 9.01603 11.8816 8.40845C11.8816 7.79593 11.7168 7.31719 11.387 6.973C11.057 6.62881 10.5824 6.45652 9.96327 6.45652H9.1031V10.3227H9.96327ZM17.734 6.4489V7.9987H19.561V8.70501H17.734V10.323H19.7892V11.0293H16.8662V5.74261H19.7892V6.44928H17.734V6.4489ZM24.9565 10.3303H26.7454V11.029H24.0888V5.75022H24.9567L24.9565 10.3303ZM31.5701 6.4489V7.9987H33.397V8.70501H31.5701V10.323H33.6252V11.0293H30.7022V5.74261H33.6252V6.44928H31.5701V6.4489ZM41.7536 7.26917C41.6168 7.00616 41.4262 6.80719 41.1829 6.67302C40.9392 6.53885 40.6573 6.47177 40.3375 6.47177C39.9876 6.47177 39.6755 6.55028 39.4016 6.70732C39.1274 6.86436 38.9127 7.08697 38.758 7.37551C38.6033 7.66405 38.5261 7.9987 38.5261 8.37834C38.5261 8.75798 38.6033 9.09341 38.758 9.385C38.9127 9.67583 39.1274 9.89995 39.4016 10.057C39.6755 10.214 39.9876 10.2925 40.3375 10.2925C40.8097 10.2925 41.1928 10.1607 41.4873 9.89766C41.7815 9.63428 41.9618 9.27713 42.0275 8.8266H40.0411V8.13516H42.9561V8.81135C42.9007 9.22148 42.7548 9.59883 42.5187 9.94302C42.2827 10.2876 41.9755 10.5624 41.5977 10.7671C41.2196 10.9722 40.7994 11.0747 40.3375 11.0747C39.8406 11.0747 39.386 10.9596 38.975 10.7294C38.5639 10.4987 38.2381 10.1786 37.9968 9.76844C37.7558 9.35831 37.6353 8.89482 37.6353 8.37834C37.6353 7.86186 37.7558 7.39837 37.9968 6.98824C38.2381 6.5781 38.5651 6.25793 38.9792 6.02733C39.3925 5.7971 39.8455 5.682 40.3375 5.682C40.901 5.682 41.4022 5.81998 41.8411 6.09594C42.28 6.37191 42.5986 6.76298 42.7964 7.26917H41.7536ZM50.2324 9.95026H48.0172L47.6363 11.029H46.7306L48.6261 5.74261H49.6307L51.5262 11.029H50.6128L50.232 9.95026H50.2324ZM49.9886 9.24434L49.1284 6.7908L48.2605 9.24434H49.9886ZM57.3103 5.75022C57.8734 5.75022 58.3669 5.85772 58.7906 6.07308C59.2146 6.28805 59.542 6.59717 59.7727 6.99968C60.0038 7.40219 60.1192 7.87216 60.1192 8.40884C60.1192 8.94552 60.0038 9.41129 59.7727 9.80656C59.542 10.2014 59.2146 10.5041 58.7906 10.7141C58.3669 10.9241 57.8734 11.0293 57.3103 11.0293H55.5822V5.75022H57.3103ZM57.3103 10.3227C57.9292 10.3227 58.4036 10.1557 58.7337 9.82143C59.0637 9.48715 59.2287 9.01603 59.2287 8.40845C59.2287 7.79593 59.0637 7.31719 58.7337 6.973C58.4036 6.62881 57.9292 6.45652 57.3103 6.45652H56.4497V10.3227H57.3103ZM66.6261 11.0823C66.1337 11.0823 65.681 10.9672 65.2673 10.7366C64.8536 10.5064 64.5266 10.1847 64.2852 9.77226C64.0441 9.35946 63.9238 8.89482 63.9238 8.37834C63.9238 7.86148 64.0441 7.39837 64.2852 6.98824C64.5266 6.57772 64.8536 6.25755 65.2673 6.02733C65.681 5.79672 66.1337 5.68162 66.6261 5.68162C67.1234 5.68162 67.5791 5.79672 67.9928 6.02733C68.4062 6.25755 68.732 6.57772 68.9707 6.98824C69.2091 7.39837 69.3287 7.86148 69.3287 8.37834C69.3287 8.89482 69.2091 9.35946 68.9707 9.77226C68.732 10.1847 68.4062 10.5064 67.9928 10.7366C67.5791 10.9672 67.1234 11.0823 66.6261 11.0823ZM66.6261 10.3303C66.9763 10.3303 67.2884 10.2506 67.5623 10.0909C67.8366 9.93158 68.0509 9.70365 68.206 9.40748C68.3607 9.11094 68.4379 8.76827 68.4379 8.37834C68.4379 7.98803 68.3607 7.64613 68.206 7.35264C68.0509 7.05914 67.8366 6.83387 67.5623 6.67683C67.2884 6.51979 66.9763 6.44127 66.6261 6.44127C66.2758 6.44127 65.9641 6.51979 65.6898 6.67683C65.4159 6.83387 65.2012 7.05914 65.0465 7.35264C64.8918 7.64613 64.8146 7.98803 64.8146 8.37834C64.8146 8.76827 64.8918 9.11094 65.0465 9.40748C65.2012 9.70365 65.4159 9.93158 65.6898 10.0909C65.9641 10.2506 66.2758 10.3303 66.6261 10.3303Z" fill="#F1F5FB"/>
<path fill-rule="evenodd" clip-rule="evenodd" d="M153.865 0H174.176V16.7639H139.16L153.865 0ZM165.877 5.03936L166.492 6.94059C166.513 7.00272 166.568 7.04313 166.634 7.04313L168.636 7.03931C168.702 7.03931 168.757 7.07934 168.778 7.14147C168.797 7.2036 168.776 7.26877 168.723 7.30727L167.101 8.47859C167.048 8.5167 167.026 8.58226 167.047 8.64439L167.67 10.5434C167.69 10.6051 167.669 10.6703 167.616 10.7088C167.563 10.7473 167.494 10.7473 167.441 10.7088L165.824 9.53098C165.77 9.49249 165.702 9.49249 165.649 9.53098L164.031 10.7088C163.978 10.7473 163.909 10.7473 163.856 10.7088C163.804 10.6703 163.782 10.6051 163.803 10.5434L164.425 8.64439C164.445 8.58226 164.424 8.5167 164.371 8.47859L162.749 7.30727C162.696 7.26877 162.674 7.2036 162.695 7.14147C162.715 7.07934 162.771 7.03931 162.836 7.03931L164.838 7.04313C164.904 7.04313 164.96 7.00272 164.979 6.94059L165.595 5.03936C165.615 4.97723 165.67 4.93682 165.736 4.93682C165.801 4.93682 165.857 4.97723 165.877 5.03936H165.877ZM161.573 2.33424L161.874 3.26466C161.889 3.31155 161.931 3.34204 161.981 3.34204L162.96 3.34013C163.01 3.34013 163.052 3.37062 163.067 3.41712C163.082 3.46401 163.066 3.51318 163.026 3.54215L162.232 4.11542C162.192 4.14438 162.176 4.19356 162.192 4.24044L162.496 5.16971C162.511 5.21697 162.496 5.26614 162.456 5.29473C162.415 5.32408 162.363 5.32408 162.324 5.29473L161.532 4.71842C161.492 4.68945 161.44 4.68945 161.4 4.71842L160.609 5.29473C160.569 5.32408 160.517 5.32408 160.477 5.29473C160.437 5.26614 160.421 5.21697 160.436 5.16971L160.741 4.24044C160.756 4.19356 160.74 4.14438 160.7 4.11542L159.906 3.54215C159.866 3.51318 159.85 3.46401 159.866 3.41712C159.881 3.37062 159.923 3.34013 159.972 3.34013L160.952 3.34204C161.002 3.34204 161.044 3.31155 161.059 3.26466L161.36 2.33424C161.375 2.28736 161.417 2.25686 161.466 2.25686C161.516 2.25686 161.557 2.28736 161.573 2.33424ZM161.573 11.5252L161.874 12.4556C161.889 12.5025 161.931 12.533 161.981 12.533L162.96 12.5311C163.01 12.5307 163.052 12.5612 163.067 12.6081C163.082 12.655 163.066 12.7042 163.026 12.7331L162.232 13.3064C162.192 13.3354 162.176 13.3845 162.192 13.4314L162.496 14.3607C162.511 14.4076 162.496 14.4567 162.456 14.4857C162.415 14.5147 162.363 14.5147 162.324 14.4857L161.532 13.9094C161.492 13.8804 161.44 13.8804 161.4 13.9094L160.609 14.4857C160.569 14.5147 160.517 14.5147 160.477 14.4857C160.437 14.4567 160.421 14.4076 160.436 14.3607L160.741 13.4314C160.756 13.3845 160.74 13.3354 160.7 13.3064L159.906 12.7331C159.866 12.7042 159.85 12.655 159.866 12.6081C159.881 12.5612 159.923 12.5307 159.972 12.5311L160.952 12.533C161.002 12.533 161.044 12.5025 161.059 12.4556L161.36 11.5252C161.375 11.478 161.417 11.4478 161.466 11.4478C161.516 11.4478 161.557 11.478 161.573 11.5252ZM170.113 2.33424L170.414 3.26466C170.429 3.31155 170.471 3.34204 170.52 3.34204L171.5 3.34013C171.55 3.34013 171.592 3.37062 171.607 3.41712C171.622 3.46401 171.606 3.51318 171.566 3.54215L170.772 4.11542C170.732 4.14438 170.716 4.19356 170.731 4.24044L171.036 5.16971C171.051 5.21697 171.036 5.26614 170.995 5.29473C170.956 5.32408 170.904 5.32408 170.864 5.29473L170.072 4.71842C170.032 4.68945 169.98 4.68945 169.94 4.71842L169.148 5.29473C169.109 5.32408 169.057 5.32408 169.017 5.29473C168.977 5.26614 168.961 5.21697 168.976 5.16971L169.281 4.24044C169.296 4.19356 169.28 4.14438 169.241 4.11542L168.446 3.54215C168.406 3.51318 168.39 3.46401 168.405 3.41712C168.421 3.37062 168.463 3.34013 168.512 3.34013L169.492 3.34204C169.542 3.34204 169.584 3.31155 169.599 3.26466L169.9 2.33424C169.915 2.28736 169.957 2.25686 170.006 2.25686C170.055 2.25686 170.097 2.28736 170.113 2.33424ZM170.113 11.5252L170.414 12.4556C170.429 12.5025 170.471 12.533 170.52 12.533L171.5 12.5311C171.55 12.5307 171.592 12.5612 171.607 12.6081C171.622 12.655 171.606 12.7042 171.566 12.7331L170.772 13.3064C170.732 13.3354 170.716 13.3845 170.731 13.4314L171.036 14.3607C171.051 14.4076 171.036 14.4567 170.995 14.4857C170.956 14.5147 170.904 14.5147 170.864 14.4857L170.072 13.9094C170.032 13.8804 169.98 13.8804 169.94 13.9094L169.148 14.4857C169.109 14.5147 169.057 14.5147 169.017 14.4857C168.977 14.4567 168.961 14.4076 168.976 14.3607L169.281 13.4314C169.296 13.3845 169.28 13.3354 169.241 13.3064L168.446 12.7331C168.406 12.7042 168.39 12.655 168.405 12.6081C168.421 12.5612 168.463 12.5307 168.512 12.5311L169.492 12.533C169.542 12.533 169.584 12.5025 169.599 12.4556L169.9 11.5252C169.915 11.478 169.957 11.4478 170.006 11.4478C170.055 11.4478 170.097 11.478 170.113 11.5252Z" fill="#F1F5FB"/>
<path d="M106.554 36.7948C106.554 35.0254 106.889 33.4726 107.559 32.1355C108.229 30.7983 109.141 29.77 110.295 29.0499C111.45 28.3299 112.738 27.9697 114.161 27.9697C115.377 27.9697 116.444 28.2167 117.361 28.7103C118.279 29.2043 118.985 29.8523 119.48 30.6543V28.2167H124.768V45.435H119.48V42.9971C118.964 43.7994 118.248 44.4474 117.33 44.941C116.413 45.4346 115.346 45.6816 114.13 45.6816C112.728 45.6816 111.45 45.3165 110.295 44.5861C109.141 43.8558 108.229 42.8168 107.559 41.4698C106.889 40.122 106.554 38.5638 106.554 36.7948ZM119.48 36.8257C119.48 35.5091 119.114 34.4705 118.382 33.7093C117.65 32.9481 116.759 32.5673 115.707 32.5673C114.656 32.5673 113.764 32.9431 113.032 33.6937C112.3 34.4445 111.934 35.4783 111.934 36.7948C111.934 38.1113 112.3 39.1553 113.032 39.9268C113.764 40.6983 114.656 41.084 115.707 41.084C116.759 41.084 117.65 40.7032 118.382 39.9424C119.114 39.1812 119.48 38.1422 119.48 36.8257Z" fill="#F1F5FB"/>
<path d="M130.58 31.0868C131.198 30.1403 131.971 29.3948 132.899 28.8497C133.827 28.3046 134.857 28.0317 135.991 28.0317V33.6173H134.537C133.218 33.6173 132.229 33.9001 131.569 34.4658C130.909 35.0314 130.579 36.024 130.579 37.4434V45.4353H125.291V28.2174H130.579V31.0868H130.58Z" fill="#F1F5FB"/>
<path d="M141.803 28.2166V45.4348H136.515V28.2166H141.803Z" fill="#F1F5FB"/>
<path d="M142.327 36.7948C142.327 35.0254 142.662 33.4726 143.332 32.1355C144.002 30.7983 144.914 29.7696 146.068 29.0499C147.223 28.3299 148.512 27.9697 149.934 27.9697C151.15 27.9697 152.217 28.2167 153.135 28.7103C154.052 29.2039 154.758 29.8523 155.253 30.6543V28.2167H160.541V45.4346H155.253V42.9971C154.738 43.7994 154.021 44.4474 153.104 44.941C152.186 45.4346 151.12 45.6816 149.903 45.6816C148.501 45.6816 147.223 45.3165 146.068 44.5861C144.914 43.8558 144.002 42.8168 143.332 41.4694C142.662 40.122 142.327 38.5638 142.327 36.7948ZM155.253 36.8257C155.253 35.5091 154.887 34.4705 154.155 33.7093C153.423 32.9481 152.532 32.5673 151.48 32.5673C150.429 32.5673 149.537 32.9431 148.805 33.6937C148.074 34.4445 147.708 35.4783 147.708 36.7948C147.708 38.1113 148.074 39.1553 148.805 39.9268C149.537 40.6983 150.429 41.084 151.48 41.084C152.532 41.084 153.423 40.7032 154.155 39.9421C154.887 39.1809 155.253 38.1422 155.253 36.8257Z" fill="#F1F5FB"/>
<path d="M169.012 45.6817C167.507 45.6817 166.167 45.4248 164.992 44.9102C163.817 44.3961 162.889 43.6913 162.209 42.7967C161.529 41.9021 161.147 40.8989 161.065 39.7882H166.291C166.353 40.3847 166.631 40.8684 167.126 41.2385C167.621 41.609 168.229 41.7942 168.95 41.7942C169.61 41.7942 170.12 41.6654 170.481 41.4085C170.842 41.1512 171.022 40.8169 171.022 40.4057C171.022 39.9117 170.765 39.5465 170.25 39.3098C169.734 39.0735 168.899 38.8112 167.744 38.5231C166.507 38.2349 165.477 37.9315 164.652 37.6129C163.827 37.2938 163.116 36.7899 162.519 36.1004C161.92 35.4117 161.622 34.4805 161.622 33.308C161.622 32.3208 161.895 31.4209 162.441 30.6082C162.988 29.7956 163.791 29.153 164.853 28.6799C165.915 28.2065 167.177 27.9702 168.641 27.9702C170.806 27.9702 172.512 28.505 173.759 29.5749C175.007 30.6445 175.723 32.0639 175.908 33.8329H171.022C170.94 33.2364 170.677 32.7633 170.234 32.4134C169.791 32.0639 169.208 31.8889 168.487 31.8889C167.868 31.8889 167.394 32.0071 167.064 32.2438C166.734 32.4805 166.569 32.8045 166.569 33.2158C166.569 33.7094 166.832 34.0799 167.358 34.3269C167.883 34.5735 168.703 34.8205 169.816 35.0671C171.094 35.3964 172.135 35.7204 172.94 36.0394C173.744 36.3581 174.45 36.8727 175.058 37.5824C175.666 38.2921 175.98 39.2435 176.001 40.4365C176.001 41.4447 175.717 42.3443 175.151 43.1363C174.584 43.9284 173.769 44.5508 172.708 45.0032C171.646 45.4561 170.414 45.6821 169.012 45.6821V45.6817Z" fill="#F1F5FB"/>
<path d="M116.081 52.0301C116.463 52.0301 116.797 52.103 117.084 52.2489C117.372 52.3949 117.594 52.6042 117.75 52.8775C117.907 53.1504 117.985 53.4687 117.985 53.8327C117.985 54.1967 117.907 54.5127 117.75 54.7802C117.594 55.0482 117.372 55.2536 117.084 55.3958C116.797 55.5384 116.463 55.6096 116.081 55.6096H114.909V52.0301H116.081ZM116.081 55.1305C116.5 55.1305 116.822 55.0173 117.045 54.7905C117.269 54.5637 117.381 54.2447 117.381 53.8327C117.381 53.4172 117.269 53.0924 117.045 52.8592C116.822 52.6255 116.5 52.5089 116.081 52.5089H115.497V55.1301H116.081V55.1305ZM121.349 52.5039V53.5544H122.588V54.0335H121.349V55.1305H122.743V55.6096H120.761V52.0252H122.743V52.5039H121.349ZM128.166 53.0963C128.166 53.2785 128.123 53.45 128.037 53.6112C127.951 53.7724 127.814 53.9039 127.624 54.0053C127.435 54.1067 127.192 54.1574 126.897 54.1574H126.246V55.6096H125.658V52.0301H126.897C127.172 52.0301 127.405 52.0774 127.596 52.1719C127.787 52.2665 127.93 52.3942 128.024 52.5554C128.119 52.717 128.166 52.8973 128.166 53.0963ZM126.897 53.6783C127.121 53.6783 127.287 53.6276 127.397 53.5262C127.508 53.4252 127.563 53.2815 127.563 53.0963C127.563 52.7048 127.341 52.5093 126.897 52.5093H126.246V53.6783H126.897ZM131.159 55.6455C131.052 55.6455 130.963 55.6093 130.89 55.5372C130.818 55.4652 130.782 55.376 130.782 55.2696C130.782 55.1629 130.818 55.0737 130.89 55.0017C130.963 54.9297 131.052 54.8934 131.159 54.8934C131.262 54.8934 131.35 54.9297 131.422 55.0017C131.494 55.0737 131.531 55.1629 131.531 55.2696C131.531 55.376 131.494 55.4652 131.422 55.5372C131.35 55.6093 131.262 55.6455 131.159 55.6455ZM136.288 52.5039V53.5544H137.527V54.0335H136.288V55.1305H137.682V55.6096H135.7V52.0252H137.682V52.5039H136.288ZM141.779 55.6455C141.539 55.6455 141.322 55.6035 141.129 55.5193C140.936 55.4351 140.785 55.3158 140.675 55.1614C140.565 55.0066 140.509 54.8267 140.509 54.6205H141.139C141.153 54.7749 141.214 54.9022 141.322 55.0017C141.431 55.1012 141.583 55.1511 141.779 55.1511C141.982 55.1511 142.141 55.1023 142.254 55.0044C142.368 54.9064 142.424 54.7802 142.424 54.6259C142.424 54.5054 142.389 54.4078 142.319 54.332C142.248 54.2565 142.16 54.1982 142.055 54.157C141.95 54.1159 141.805 54.0713 141.619 54.0233C141.385 53.9615 141.195 53.8986 141.049 53.835C140.903 53.7717 140.778 53.673 140.675 53.5392C140.571 53.405 140.52 53.2266 140.52 53.0033C140.52 52.7974 140.571 52.6171 140.675 52.4624C140.778 52.308 140.922 52.1895 141.108 52.1071C141.294 52.0248 141.509 51.9836 141.753 51.9836C142.101 51.9836 142.386 52.0702 142.608 52.2436C142.83 52.417 142.953 52.6549 142.977 52.9571H142.326C142.316 52.8264 142.254 52.7151 142.141 52.6221C142.027 52.5295 141.877 52.4833 141.691 52.4833C141.523 52.4833 141.385 52.526 141.278 52.6118C141.172 52.6976 141.119 52.8214 141.119 52.9827C141.119 53.0924 141.152 53.1828 141.219 53.2529C141.286 53.3234 141.372 53.3795 141.475 53.4206C141.578 53.4618 141.719 53.5064 141.898 53.5544C142.135 53.6196 142.329 53.6848 142.479 53.75C142.628 53.8155 142.756 53.9158 142.861 54.0515C142.966 54.1872 143.018 54.3682 143.018 54.595C143.018 54.7768 142.969 54.9483 142.871 55.1099C142.773 55.2712 142.63 55.4008 142.442 55.4987C142.255 55.5967 142.034 55.6455 141.779 55.6455ZM148.225 52.0301V52.5093H147.27V55.6093H146.681V52.5093H145.721V52.0301H148.225H148.225ZM153.173 54.8782H151.672L151.414 55.6093H150.799L152.084 52.0248H152.766L154.051 55.6093H153.432L153.173 54.8782ZM153.008 54.3991L152.425 52.7357L151.837 54.3991H153.008ZM157.973 52.0301C158.355 52.0301 158.689 52.103 158.977 52.2489C159.264 52.3949 159.486 52.6042 159.642 52.8775C159.799 53.1504 159.877 53.4687 159.877 53.8327C159.877 54.1967 159.799 54.5127 159.642 54.7802C159.486 55.0482 159.264 55.2536 158.977 55.3958C158.689 55.5384 158.355 55.6096 157.973 55.6096H156.801V52.0301H157.973ZM157.973 55.1305C158.393 55.1305 158.714 55.0173 158.938 54.7905C159.162 54.5637 159.273 54.2447 159.273 53.8327C159.273 53.4172 159.162 53.0924 158.938 52.8592C158.714 52.6255 158.393 52.5089 157.973 52.5089H157.389V55.1301H157.973V55.1305ZM163.236 52.0301V54.3114C163.236 54.5828 163.308 54.7871 163.451 54.9243C163.593 55.0619 163.792 55.1305 164.047 55.1305C164.305 55.1305 164.505 55.0619 164.648 54.9243C164.791 54.7871 164.862 54.5828 164.862 54.3114V52.0301H165.451V54.3011C165.451 54.5931 165.387 54.8405 165.26 55.0429C165.133 55.2453 164.962 55.3966 164.749 55.4961C164.535 55.5955 164.3 55.6455 164.042 55.6455C163.783 55.6455 163.549 55.5955 163.337 55.4961C163.126 55.3966 162.958 55.2453 162.834 55.0429C162.71 54.8405 162.648 54.5931 162.648 54.3011V52.0301H163.236ZM170.57 54.8782H169.068L168.81 55.6093H168.195L169.48 52.0248H170.162L171.447 55.6093H170.828L170.57 54.8782ZM170.404 54.3991L169.822 52.7357L169.233 54.3991H170.404ZM174.786 55.1355H175.998V55.6093H174.197V52.0301H174.786V55.1355Z" fill="#F1F5FB"/>
<path fill-rule="evenodd" clip-rule="evenodd" d="M0 51.6299H54.2043L51.6977 55.9999H0V51.6299Z" fill="#F1F5FB"/>
<path fill-rule="evenodd" clip-rule="evenodd" d="M106.554 55.9999H52.3493L54.8559 51.6299H106.554V55.9999Z" fill="#F1F5FB"/>
<path fill-rule="evenodd" clip-rule="evenodd" d="M139.404 19.7397L140.099 21.8856C140.134 21.9935 140.231 22.064 140.345 22.0636L142.604 22.0594C142.718 22.0594 142.815 22.1292 142.85 22.237C142.886 22.3453 142.849 22.4589 142.756 22.5256L140.926 23.8471C140.833 23.9138 140.796 24.0277 140.832 24.1356L141.534 26.2789C141.569 26.3868 141.533 26.5004 141.44 26.5671C141.348 26.6338 141.229 26.6338 141.137 26.5667L139.311 25.2379C139.219 25.1709 139.099 25.1709 139.007 25.2379L137.181 26.5667C137.089 26.6338 136.97 26.6338 136.878 26.5671C136.785 26.5004 136.749 26.3868 136.784 26.2789L137.486 24.1356C137.522 24.0277 137.485 23.9138 137.392 23.8471L135.562 22.5256C135.47 22.4589 135.432 22.3453 135.468 22.237C135.503 22.1292 135.599 22.0594 135.714 22.0594L137.973 22.0636C138.087 22.064 138.184 21.9935 138.219 21.8856L138.913 19.7397C138.948 19.6314 139.045 19.5613 139.159 19.5613C139.273 19.5613 139.369 19.6314 139.404 19.7397H139.404Z" fill="#F1F5FB"/>
</svg>
